<svg xmlns="http://www.w3.org/2000/svg" id="Layer_1" x="0px" y="0px" viewBox="0 0 51.91 63.29" style="enable-background:new 0 0 51.91 63.29;"><style type="text/css">
	.st0{fill:#3B788F;}
</style><g><path class="st0" d="M6.18,27.93c0.68,0,1.24-0.55,1.24-1.24c0-0.68-0.55-1.24-1.24-1.24s-1.24,0.55-1.24,1.24 C4.94,27.38,5.5,27.93,6.18,27.93z" style="fill: rgb(252, 19, 19);"></path><path class="st0" d="M25.6,63.23c0.12,0.03,0.24,0.05,0.36,0.05c0.12,0,0.24-0.02,0.36-0.05c6.89-2.07,13.46-6.94,18.5-13.71 c4.65-6.24,7.1-13.66,7.1-21.45V11.87c0-0.68-0.55-1.24-1.24-1.24c-13.47,0-20.71-7.2-23.09-9.56c-0.48-0.48-0.73-0.72-0.98-0.88 c-0.4-0.25-0.9-0.25-1.3,0c-0.18,0.11-0.32,0.25-0.66,0.58c-0.88,0.86-2.94,2.88-6.13,4.87c-5.3,3.31-11.11,4.99-17.28,4.99 C0.55,10.63,0,11.18,0,11.87v16.22c0,7.78,2.46,15.2,7.1,21.45C12.14,56.3,18.71,61.17,25.6,63.23z M2.47,28.08v-15 c6.18-0.21,12.01-2.01,17.35-5.35c2.99-1.87,5.04-3.75,6.14-4.8c2.59,2.57,9.99,9.73,23.48,10.15v15c0,7.25-2.29,14.15-6.61,19.97 c-4.64,6.23-10.61,10.73-16.87,12.7c-6.26-1.98-12.24-6.48-16.87-12.7C4.76,42.24,2.47,35.33,2.47,28.08z" style="fill: rgb(252, 19, 19);"></path><path class="st0" d="M25.54,57.64c0.13,0.05,0.27,0.07,0.41,0.07s0.28-0.02,0.41-0.07c5.55-1.96,10.55-5.79,14.47-11.07 c4.01-5.38,6.13-11.78,6.13-18.49V16.54c0-0.63-0.47-1.16-1.1-1.23c-6.8-0.75-13.26-3.51-19.18-8.18 c-0.44-0.35-1.07-0.35-1.52-0.01c-5.87,4.49-12.67,7.39-19.14,8.17c-0.62,0.07-1.09,0.6-1.09,1.23v5.24c0,0.68,0.55,1.24,1.24,1.24 s1.24-0.55,1.24-1.24V17.6c4.7-0.72,11.38-2.71,18.49-7.94c5.77,4.37,12.01,7.05,18.59,7.98v10.45c0,6.18-1.95,12.06-5.64,17.02 c-3.53,4.75-7.99,8.22-12.9,10.07c-4.92-1.84-9.37-5.31-12.9-10.06c-2.98-4-4.86-8.7-5.44-13.61c-0.08-0.68-0.69-1.16-1.37-1.08 c-0.68,0.08-1.16,0.7-1.08,1.37c0.63,5.33,2.68,10.45,5.91,14.79C14.99,51.85,20,55.68,25.54,57.64z" style="fill: rgb(252, 19, 19);"></path><path class="st0" d="M38.23,27.1c-0.15-0.45-0.53-0.77-1-0.84l-7.06-1.03l-3.15-6.39c-0.21-0.42-0.64-0.69-1.11-0.69l0,0 c-0.47,0-0.9,0.27-1.11,0.69l-3.16,6.39l-7.06,1.03c-0.47,0.07-0.85,0.39-1,0.84c-0.15,0.45-0.02,0.94,0.31,1.27l5.11,4.98 l-1.21,7.03c-0.08,0.46,0.11,0.93,0.49,1.21c0.22,0.16,0.47,0.24,0.73,0.24c0.2,0,0.39-0.05,0.58-0.14l6.31-3.32l6.31,3.32 c0.42,0.22,0.92,0.18,1.3-0.09c0.38-0.28,0.57-0.75,0.49-1.21l-1.21-7.03l5.11-4.98C38.25,28.03,38.37,27.54,38.23,27.1z M30.62,32.02c-0.29,0.28-0.42,0.69-0.36,1.09l0.89,5.2l-4.67-2.46c-0.36-0.19-0.79-0.19-1.15,0l-4.67,2.46l0.89-5.2 c0.07-0.4-0.06-0.81-0.36-1.09l-3.78-3.68l5.22-0.76c0.4-0.06,0.75-0.31,0.93-0.68l2.34-4.73l2.33,4.73 c0.18,0.36,0.53,0.62,0.93,0.68l5.22,0.76L30.62,32.02z" style="fill: rgb(252, 19, 19);"></path></g></svg>